<svg width="129" height="29" viewBox="0 0 129 29" fill="none" xmlns="http://www.w3.org/2000/svg">
<path d="M7.34797 28.6411C5.07219 28.6411 3.27226 28.2377 1.94817 27.4308C0.644767 26.624 -0.0069333 25.5068 -0.0069333 24.0792C-0.0069333 23.9551 0.00341112 23.7999 0.0241 23.6137C0.0447889 23.4482 0.0758223 23.2827 0.1172 23.1172L4.3998 20.4483L5.36183 21.5345L3.40673 23.9241C3.38604 23.9861 3.3757 24.0379 3.3757 24.0792C3.3757 24.1206 3.3757 24.162 3.3757 24.2034C3.3757 24.7827 3.73776 25.2275 4.46187 25.5378C5.18598 25.8481 6.14801 26.0033 7.34797 26.0033C8.36172 26.0033 9.13756 25.8688 9.67547 25.5999C10.2134 25.3516 10.4823 24.9792 10.4823 24.4827C10.4823 24.2137 10.4099 23.9965 10.2651 23.831C10.1203 23.6655 9.88236 23.531 9.55133 23.4275C9.22031 23.3241 8.78584 23.231 8.24793 23.1482C7.73071 23.0655 7.0997 22.9724 6.3549 22.8689C5.40321 22.7655 4.47221 22.5689 3.5619 22.2793C2.65159 22.0103 1.89644 21.6069 1.29647 21.069C0.696489 20.5104 0.3965 19.7759 0.3965 18.8656C0.3965 18.0588 0.6758 17.3243 1.2344 16.6623C1.793 15.9795 2.52746 15.4209 3.43777 14.9865L5.29977 16.4761C4.74117 16.5588 4.31704 16.745 4.0274 17.0347C3.75844 17.3243 3.62397 17.6657 3.62397 18.0588C3.62397 18.3898 3.75844 18.6587 4.0274 18.8656C4.29636 19.0518 4.6791 19.1967 5.17563 19.3001C5.67217 19.4035 6.2618 19.4966 6.94453 19.5794C7.99967 19.7242 8.97204 19.8794 9.86167 20.0449C10.772 20.2104 11.5582 20.4483 12.2202 20.7587C12.9029 21.0483 13.4202 21.4517 13.7719 21.969C14.1443 22.4862 14.3305 23.1586 14.3305 23.9861C14.3305 25.4964 13.7201 26.6447 12.4995 27.4308C11.2995 28.2377 9.58237 28.6411 7.34797 28.6411ZM7.03763 17.7174C5.75492 17.7174 4.62738 17.4795 3.655 17.0036C2.70331 16.5071 1.95851 15.8451 1.4206 15.0175C0.882689 14.1693 0.613733 13.1969 0.613733 12.1004C0.613733 10.9625 0.893033 9.96941 1.45163 9.12117C2.03092 8.25223 2.79641 7.57984 3.7481 7.104C4.72048 6.62816 5.77561 6.39023 6.9135 6.39023C8.0307 6.39023 9.06514 6.62816 10.0168 7.104C10.9892 7.57984 11.765 8.26258 12.3443 9.1522C12.9443 10.0211 13.2443 11.0452 13.2443 12.2245C13.2443 13.3417 12.9753 14.3141 12.4374 15.1416C11.9202 15.9485 11.1961 16.5795 10.2651 17.0347C9.3341 17.4898 8.25828 17.7174 7.03763 17.7174ZM6.94453 14.6761C7.77209 14.6761 8.38241 14.4279 8.7755 13.9313C9.18928 13.4141 9.39617 12.7934 9.39617 12.0693C9.39617 11.3245 9.17893 10.7246 8.74447 10.2694C8.31 9.79356 7.71002 9.55563 6.94453 9.55563C6.17904 9.55563 5.56872 9.79356 5.11357 10.2694C4.6791 10.7452 4.46187 11.3452 4.46187 12.0693C4.46187 12.7934 4.66876 13.4141 5.08253 13.9313C5.49631 14.4279 6.11698 14.6761 6.94453 14.6761ZM12.1892 9.92803L9.4272 8.1281L12.965 5.30407L14.9201 7.69363L12.1892 9.92803ZM23.5704 22.3103C22.2463 22.3103 21.1084 22.0931 20.1567 21.6586C19.205 21.2242 18.4189 20.6449 17.7982 19.9208C17.1982 19.176 16.7534 18.3381 16.4638 17.4071C16.1741 16.4554 16.0293 15.4623 16.0293 14.4279C16.0293 13.4348 16.1741 12.4624 16.4638 11.5107C16.7534 10.559 17.1879 9.70046 17.7672 8.93497C18.3465 8.16948 19.0913 7.55915 20.0016 7.104C20.9326 6.62816 22.0394 6.39023 23.3221 6.39023C24.5221 6.39023 25.5669 6.59712 26.4565 7.0109C27.3461 7.40399 28.0806 7.96259 28.6599 8.6867C29.2392 9.39012 29.6736 10.2177 29.9633 11.1694C30.2736 12.1211 30.4288 13.1348 30.4288 14.2106C30.4288 14.3555 30.4184 14.5623 30.3977 14.8313C30.3977 15.0796 30.377 15.3485 30.3357 15.6382H19.8774C19.9809 16.7347 20.3843 17.5622 21.0877 18.1208C21.8118 18.6794 22.7118 18.9587 23.7876 18.9587C24.5738 18.9587 25.3393 18.8243 26.0841 18.5553C26.8289 18.2657 27.4909 17.8622 28.0702 17.345L29.9943 19.9518C29.2702 20.5104 28.5875 20.9656 27.9461 21.3173C27.3047 21.669 26.6324 21.9172 25.9289 22.0621C25.2462 22.2276 24.46 22.3103 23.5704 22.3103ZM26.6117 13.7141C26.653 13.5486 26.6841 13.3831 26.7048 13.2176C26.7461 13.0521 26.7668 12.8969 26.7668 12.7521C26.7668 12.3176 26.6841 11.9142 26.5186 11.5418C26.3531 11.1487 26.1255 10.8073 25.8358 10.5177C25.5462 10.228 25.1945 10.0108 24.7807 9.86597C24.3876 9.70046 23.9325 9.6177 23.4152 9.6177C22.6497 9.6177 22.0084 9.77287 21.4912 10.0832C20.9739 10.3935 20.5809 10.797 20.3119 11.2935C20.0636 11.7693 19.9085 12.2659 19.8464 12.7831H27.9151L26.6117 13.7141ZM39.3062 22.3103C38.4787 22.3103 37.7132 22.1552 37.0098 21.8448C36.3063 21.5345 35.7374 21.0276 35.3029 20.3242C34.8892 19.6208 34.6823 18.6794 34.6823 17.5002V3.13173L38.5925 1.0525V16.445C38.5925 17.3347 38.7063 18.007 38.9338 18.4622C39.1821 18.9174 39.6579 19.1449 40.3614 19.1449C40.5683 19.1449 40.7958 19.1242 41.0441 19.0829C41.3131 19.0415 41.6027 18.9794 41.913 18.8967V21.8448C41.4786 22.0103 41.0441 22.1241 40.6096 22.1862C40.1752 22.269 39.7407 22.3103 39.3062 22.3103ZM31.8893 9.7108V6.70057H41.913V9.7108H31.8893ZM44.0912 24.9171V22H57.1562V24.9171H44.0912ZM60.1715 22V0.369766H64.0507V10.1763L63.399 10.2694C63.668 9.3384 64.0611 8.5936 64.5783 8.035C65.1162 7.45571 65.7265 7.04193 66.4092 6.79367C67.1127 6.52471 67.8161 6.39023 68.5195 6.39023C70.2574 6.39023 71.6125 6.88677 72.5849 7.87983C73.5779 8.85221 74.0745 10.228 74.0745 12.0073V22H70.1953V13.4348C70.1953 12.1521 69.9677 11.2211 69.5126 10.6418C69.0574 10.0418 68.3437 9.74183 67.3713 9.74183C66.2748 9.74183 65.4472 10.1349 64.8886 10.9211C64.33 11.7073 64.0507 12.959 64.0507 14.6761V22H60.1715ZM77.6574 22V6.70057H81.5055V22H77.6574ZM77.5332 4.34203V0.369766H81.6607V4.34203H77.5332ZM85.2952 22V6.70057H89.1744V10.859L88.5847 10.9211C88.6468 10.0315 88.9158 9.2453 89.3916 8.56257C89.8675 7.87983 90.4467 7.35227 91.1295 6.97987C91.8329 6.58678 92.5467 6.39023 93.2708 6.39023C93.788 6.39023 94.2742 6.46264 94.7293 6.60747C95.2052 6.7316 95.6914 6.94883 96.1879 7.25917L94.3259 10.7349C94.0983 10.6108 93.8087 10.497 93.457 10.3935C93.1053 10.2901 92.7536 10.2384 92.4018 10.2384C91.9881 10.2384 91.5846 10.3108 91.1915 10.4556C90.8191 10.6004 90.4778 10.828 90.1674 11.1383C89.8778 11.4487 89.6399 11.8624 89.4537 12.3797C89.3709 12.6693 89.2985 13.0417 89.2364 13.4969C89.1951 13.9313 89.1744 14.5727 89.1744 15.4209V22H85.2952ZM104.518 22.3103C103.194 22.3103 102.056 22.0931 101.104 21.6586C100.152 21.2242 99.3662 20.6449 98.7455 19.9208C98.1455 19.176 97.7007 18.3381 97.4111 17.4071C97.1214 16.4554 96.9766 15.4623 96.9766 14.4279C96.9766 13.4348 97.1214 12.4624 97.4111 11.5107C97.7007 10.559 98.1352 9.70046 98.7145 8.93497C99.2937 8.16948 100.039 7.55915 100.949 7.104C101.88 6.62816 102.987 6.39023 104.269 6.39023C105.469 6.39023 106.514 6.59712 107.404 7.0109C108.293 7.40399 109.028 7.96259 109.607 8.6867C110.186 9.39012 110.621 10.2177 110.911 11.1694C111.221 12.1211 111.376 13.1348 111.376 14.2106C111.376 14.3555 111.366 14.5623 111.345 14.8313C111.345 15.0796 111.324 15.3485 111.283 15.6382H100.825C100.928 16.7347 101.332 17.5622 102.035 18.1208C102.759 18.6794 103.659 18.9587 104.735 18.9587C105.521 18.9587 106.287 18.8243 107.031 18.5553C107.776 18.2657 108.438 17.8622 109.018 17.345L110.942 19.9518C110.217 20.5104 109.535 20.9656 108.893 21.3173C108.252 21.669 107.58 21.9172 106.876 22.0621C106.193 22.2276 105.407 22.3103 104.518 22.3103ZM107.559 13.7141C107.6 13.5486 107.631 13.3831 107.652 13.2176C107.693 13.0521 107.714 12.8969 107.714 12.7521C107.714 12.3176 107.631 11.9142 107.466 11.5418C107.3 11.1487 107.073 10.8073 106.783 10.5177C106.493 10.228 106.142 10.0108 105.728 9.86597C105.335 9.70046 104.88 9.6177 104.363 9.6177C103.597 9.6177 102.956 9.77287 102.438 10.0832C101.921 10.3935 101.528 10.797 101.259 11.2935C101.011 11.7693 100.856 12.2659 100.794 12.7831H108.862L107.559 13.7141ZM120.283 22.3103C118.938 22.3103 117.78 21.969 116.807 21.2862C115.835 20.5828 115.08 19.6311 114.542 18.4312C114.025 17.2105 113.766 15.8451 113.766 14.3348C113.766 12.659 114.056 11.2314 114.635 10.0522C115.235 8.8729 116.032 7.97293 117.025 7.35227C118.018 6.71091 119.104 6.39023 120.283 6.39023C121.111 6.39023 121.876 6.56609 122.58 6.9178C123.304 7.24882 123.924 7.7557 124.442 8.43843C124.959 9.12117 125.3 9.9901 125.466 11.0452L124.69 10.828V0.369766H128.507V22H124.69V17.9036L125.59 17.4691C125.342 18.6691 124.938 19.6311 124.38 20.3552C123.842 21.0587 123.211 21.5655 122.486 21.8759C121.783 22.1655 121.049 22.3103 120.283 22.3103ZM121.338 18.7725C122.104 18.7725 122.755 18.5863 123.293 18.2139C123.852 17.8415 124.276 17.3243 124.566 16.6623C124.876 16.0002 125.031 15.2244 125.031 14.3348C125.031 13.4451 124.876 12.6693 124.566 12.0073C124.276 11.3452 123.852 10.8383 123.293 10.4866C122.755 10.1142 122.104 9.92803 121.338 9.92803C120.593 9.92803 119.942 10.1142 119.383 10.4866C118.825 10.8383 118.39 11.3452 118.08 12.0073C117.79 12.6486 117.645 13.4245 117.645 14.3348C117.645 15.2451 117.79 16.0313 118.08 16.6933C118.39 17.3553 118.825 17.8726 119.383 18.245C119.942 18.5967 120.593 18.7725 121.338 18.7725Z" fill="black"/>
</svg>
